**ABCDEFGHIJKLMNOPQRSTUVWXYZabcdefghijklmnopqrstuvwxyz**************************
**PARASOLID !"#$%&'()*+,-./:;<=>?@[\]^_`{|}~0123456789**************************
**PART1;
MC=x86;
MC_MODEL=x86 Family 6 Model 58 Stepping 9, GenuineIntel;
MC_ID=unknown;
OS=Windows_NT;
OS_RELEASE=unknown;
FRU=Parasolid Version 24.1, build 264,  4-19-2013;
APPL=SolidWorks 2013-2013273;
SITE=;
USER=unknown;
FORMAT=text;
GUISE=transmit;
KEY=New minbot back;
FILE=New minbot back.x_t;
DATE=Thu Sep 25 17:33:29 2014;
**PART2;
SCH=SCH_2401264_20000;
USFLD_SIZE=0;
**PART3;
**END_OF_HEADER*****************************************************************
T51 : TRANSMIT FILE created by modeller version 240126423 SCH_2401264_20000_1300
6189 0 12 27 CCCCCCCCCCCCCCCCCCCCCCCA16 index_map_offset0 0 1 dA9 index_map82 0
 A17 node_id_index_map82 0 A20 schema_embedding_map82 0 Z1 1454 0 2 0 0 0 0 1e3
 1e-8 0 3 0 1 0 1 1 4 5 6 7 8 9 10 0 0 0 0 70 11 CI9 list_type0 0 1 uI10 notrans
mit0 0 1 lCCCDCCDI12 finger_index0 0 1 dI12 finger_block1012 0 CZ2 0 4 T1 0 0 2
 20 1 11 11 13 255 4 94 0 1 0 12 0 0 13 0 50 255 5 93 0 14 15 0 0 +0 .01 0 1 0 0
 0 0 -1 133 255 6 826 0 16 17 0 0 +18 .048 .01 -.037 .053 .01 -.037 .048 .053 29
 255 7 827 0 10 19 0 .048 .01 -.037 19 255 8 28 0 1 13 0 20 V16 255 9 77 0 ?21 0
 22 23 0 0 1 18 255 10 824 0 24 0 25 7 ?1 17 255 24 0 26 27 28 10 29 30 0 31 +18
 25 528 0 32 10 33 19 1e-8 1 17 32 0 34 35 36 25 37 38 0 39 -18 33 274 0 40 25 4
1 42 ?1 29 19 530 0 25 42 7 0 .01 -.037 29 42 276 0 33 43 19 .03749901914986195
 0 .008 29 43 151 0 41 44 42 .00649901914986197 .0082 0 18 41 149 0 45 33 46 43
 ?1 29 44 144 0 46 47 43 .044699019149862 0 0 18 46 141 0 48 41 49 44 1e-8 1 29
 47 138 0 49 50 44 .00649901914986197 0 0 18 49 136 0 51 46 52 47 1e-8 1 29 50 7
0 0 53 54 47 0 0 -.043 18 53 61 0 55 56 57 50 ?1 29 54 71 0 57 58 50 .053 0 -.04
3 18 57 62 0 59 53 60 54 ?1 29 58 72 0 60 61 54 .053 0 0 18 60 63 0 62 57 63 58
 ?1 29 61 73 0 63 64 58 0 0 0 18 63 64 0 65 60 66 61 ?1 29 64 21 0 52 67 61 .053
 .01 0 18 52 19 0 68 49 56 64 ?1 29 67 18 0 56 69 64 0 .01 0 18 56 16 0 35 52 53
 67 ?1 29 69 237 0 70 71 67 .044699019149862 .0082 0 18 70 188 0 72 73 74 69 ?1
 29 71 240 0 66 75 69 .00649901914986197 .0082 .008 18 66 192 0 76 63 77 71 ?1 2
9 75 241 0 77 78 71 .044699019149862 .0082 .008 18 77 191 0 79 66 80 75 ?1 29 78
 242 0 80 81 75 .044699019149862 0 .008 18 80 190 0 82 77 73 78 ?1 29 81 243 0 7
3 83 78 .00649901914986197 0 .008 18 73 187 0 84 80 70 81 ?1 29 83 401 0 85 86 8
1 .01349901914986196 .0082 .008 18 85 354 0 87 88 89 83 ?1 29 86 402 0 89 90 83
 .03749901914986195 .0082 .008 18 89 353 0 91 85 92 86 ?1 29 90 404 0 92 93 86 .
01349901914986196 0 .008 18 92 352 0 94 89 95 90 ?1 29 93 405 0 74 96 90 .013499
01914986196 .0082 .005 18 74 351 0 97 70 98 93 ?1 29 96 406 0 98 99 93 .03749901
914986195 .0082 .005 18 98 357 0 100 74 101 96 ?1 29 99 407 0 101 102 96 .037499
01914986195 0 .005 18 101 358 0 103 98 88 99 ?1 29 102 408 0 88 104 99 .01349901
914986196 0 .005 18 88 355 0 105 101 85 102 ?1 29 104 624 0 106 107 102 .053 .01
 -.037 18 106 572 0 108 109 110 104 1e-8 1 29 107 626 0 95 111 104 0 .018 -.043
 18 95 578 0 112 92 113 107 ?1 29 111 627 0 113 114 107 .053 .018 -.043 18 113 5
77 0 115 95 116 111 ?1 29 114 628 0 116 117 111 .053 .018 -.037 18 116 576 0 118
 113 109 114 ?1 29 117 629 0 109 119 114 734788079488412e-33 .018 -.037 18 109 5
73 0 120 116 106 117 ?1 29 119 921 0 121 122 117 .005 .01 -.037 18 121 874 0 123
 124 125 119 ?1 29 122 923 0 125 126 119 .048 .01 -.02 18 125 878 0 28 121 127 1
22 ?1 29 126 924 0 127 128 122 .005 .01 -.02 18 127 872 0 129 125 0 126 ?1 29 12
8 925 0 110 130 126 .005 .006 -.037 18 110 871 0 131 106 132 128 ?1 29 130 926 0
 132 133 128 .048 .006 -.037 18 132 873 0 27 110 134 130 ?1 29 133 927 0 134 135
 130 .048 .006 -.02 18 134 875 0 136 132 124 133 ?1 29 135 928 0 124 0 133 .005
 .006 -.02 18 124 877 0 137 134 121 135 ?1 17 137 0 138 139 140 124 129 141 0 14
2 -15 255 138 882 0 140 143 0 17 139 0 138 123 137 110 144 145 0 146 -17 140 0 1
38 137 123 127 36 147 0 148 +17 129 0 149 150 142 127 137 141 0 140 +16 141 846
 0 ?129 151 152 153 0 0 1 17 142 0 149 129 136 124 154 155 0 144 -15 149 894 0 1
50 156 0 17 136 0 149 142 150 134 28 151 0 157 -17 154 0 158 159 144 134 142 155
 0 0 +16 155 855 0 ?154 160 145 161 0 0 1 17 144 0 158 154 146 124 139 145 0 0 +
15 158 897 0 144 162 0 17 146 0 158 144 159 110 163 152 0 0 +16 145 843 0 ?144 1
55 30 164 0 0 1 16 30 865 0 ?24 145 165 166 0 0 1 30 255 164 920 0 145 0 161 0 +
.005 .006 -.037 1020425574104004e-31 0 1 30 161 919 0 155 164 167 0 +.005 .006 -
.02 1 0 0 30 167 918 0 160 161 168 0 +.048 .006 -.037 0 0 -1 16 160 851 0 ?159 1
52 155 167 0 0 1 30 168 917 0 152 167 169 0 +.005 .006 -.037 -1 0 0 16 152 847 0
 ?146 141 160 168 0 0 1 30 169 916 0 147 168 170 0 +.005 .01 -.037 1020425574104
004e-31 0 1 16 147 859 0 ?140 165 0 169 0 0 1 30 170 915 0 165 169 166 0 +.005 .
01 -.02 1 0 0 16 165 862 0 ?150 30 147 170 0 0 1 30 166 914 0 30 170 171 0 +.048
 .01 -.037 0 0 -1 30 171 912 0 172 166 173 0 +.005 .006 -.037 0 1 0 16 172 850 0
 ?123 174 175 171 0 0 1 30 173 911 0 175 171 176 0 +.048 .006 -.037 0 1 0 16 175
 854 0 ?31 172 151 173 0 0 1 30 176 910 0 151 173 153 0 +.048 .006 -.02 0 1 0 16
 151 858 0 ?28 175 141 176 0 0 1 30 153 909 0 141 176 177 0 +.005 .006 -.02 0 1
 0 31 255 177 799 0 174 153 178 0 +.01125 .012 -.043 0 0 -1 -1 0 0 .00175 16 174
 775 0 ?179 180 172 177 0 0 1 31 178 754 0 181 177 182 0 +.02625 .012 -.043 0 0
 -1 -1 0 0 .00175 16 181 730 0 ?183 184 180 178 0 0 1 31 182 709 0 185 178 186 0
 +.04125 .012 -.043 0 0 -1 -1 0 0 .00175 16 185 685 0 ?187 188 184 182 0 0 1 30
 186 621 0 189 182 190 0 +0 .018 -.043 1224646799147352e-31 0 1 16 189 560 0 ?19
1 192 38 186 0 0 1 30 190 620 0 192 186 193 0 +734788079488412e-33 .018 -.037 1
 0 0 16 192 563 0 ?118 194 189 190 0 0 1 30 193 619 0 194 190 195 0 +.053 .018 -
.043 0 0 -1 16 194 566 0 ?196 197 192 193 0 0 1 30 195 618 0 197 193 18 0 +0 .01
8 -.043 -1 0 0 16 197 569 0 ?198 199 194 195 0 0 1 30 18 616 0 1 195 200 201 +73
4788079488412e-33 .01 -.037 1 0 0 31 200 513 0 202 18 203 0 +.01049901914986196
 .0082 .0045 0 1 0 0 0 1 .0015 141 255 201 204 205 205 18 133 204 631 0 38 206 2
07 0 +18 734788079488412e-33 .01 -.037 .005 .01 -.037 0 .005 141 205 6 201 201 1
8 16 38 548 0 ?37 189 16 204 0 0 1 133 206 537 0 208 209 204 0 +210 .053 .01 0 .
053 .01 -.037 0 .037 133 207 632 0 199 204 211 0 +211 .053 .018 -.037 .053 .01 -
.037 0 .008 16 199 555 0 ?212 213 197 207 0 0 1 30 211 633 0 1 207 214 215 +.053
 .018 -.037 0 -1 0 133 214 636 0 213 211 216 0 +216 734788079488412e-33 .018 -.0
37 734788079488412e-33 .01 -.037 0 .008 141 215 207 215 215 211 16 213 551 0 ?21
7 202 199 214 0 0 1 30 216 637 0 1 214 218 219 +734788079488412e-33 .018 -.037 0
 -1 0 31 218 670 0 188 216 220 0 +.04125 .012 -.037 0 0 -1 -1 0 0 .00175 141 219
 214 219 219 216 16 188 681 0 ?221 16 185 218 0 0 1 31 220 715 0 184 218 17 0 +.
02625 .012 -.037 0 0 -1 -1 0 0 .00175 16 184 726 0 ?222 185 181 220 0 0 1 31 17
 760 0 180 220 6 0 +.01125 .012 -.037 0 0 -1 -1 0 0 .00175 16 180 771 0 ?223 181
 174 17 0 0 1 17 223 0 224 223 223 0 225 180 0 0 +15 224 758 0 223 226 227 17 22
5 0 228 225 225 0 223 180 0 0 -15 228 782 0 225 229 0 14 255 229 778 230 ?143 23
1 232 4 233 -0 0 143 231 20 81 255 1 230 1430 234 229 235 0 0 236 237 14 143 879
 236 ?238 229 138 4 239 -0 0 238 229 20 14 231 733 240 ?229 241 242 4 243 -0 0 2
29 241 20 15 232 781 0 179 229 228 51 255 233 796 0 229 239 243 0 +.01125 .012 .
008000025 0 0 -1 .00175 -1 0 0 13 20 29 0 0 0 0 0 0 8 12 14 12 541 244 ?245 0 34
 4 246 -0 0 245 0 20 81 1 244 1433 234 12 247 0 240 248 249 14 245 286 248 ?250
 12 251 4 252 -253 253 250 12 20 15 34 539 0 148 12 0 50 246 2 0 12 254 255 0 +0
 .01 0 0 -1 0 0 0 -1 50 254 218 0 256 257 246 0 +.00649901914986197 0 .008 1 0 0
 0 0 -1 50 255 65 0 258 246 259 0 +0 0 0 0 -1 0 0 0 -1 14 258 43 260 ?256 261 26
2 4 255 +0 0 256 261 20 50 259 90 0 261 255 263 0 +0 .01 -.043 0 0 1 1 0 0 14 26
1 79 264 ?258 265 266 4 259 -0 0 258 265 20 50 263 91 0 265 259 15 0 +.053 .01 0
 -1 0 0 0 0 1 14 265 81 267 ?261 14 268 4 263 -0 0 261 14 20 50 15 92 0 250 263
 5 0 +0 .01 0 0 0 -1 -1 0 0 14 250 155 269 ?14 245 270 4 15 -0 0 14 245 20 81 1
 269 1438 234 250 271 0 267 272 273 14 14 85 272 ?265 250 274 4 5 -0 0 265 250 2
0 15 270 153 0 45 250 0 17 45 0 270 72 51 41 275 276 0 277 -17 72 0 270 48 45 70
 277 278 0 279 -17 51 0 270 45 21 49 65 280 0 281 +17 275 0 282 283 284 49 45 27
6 0 0 +16 276 158 0 ?275 285 286 287 0 0 1 17 277 0 288 289 290 41 72 278 0 284
 +15 288 209 0 291 292 0 17 289 0 288 291 277 66 284 293 0 294 -17 290 0 288 277
 295 70 296 297 0 0 +16 278 170 0 ?277 298 285 299 0 0 1 17 284 0 282 275 294 41
 289 293 0 0 +15 282 197 0 275 256 0 17 294 0 282 284 283 66 300 298 0 0 -16 293
 161 0 ?284 297 301 302 0 0 1 16 297 173 0 ?290 303 293 304 0 0 1 16 301 183 0 ?
305 293 306 307 306 306 1 30 302 227 0 293 299 304 0 +.00649901914986197 .0082 .
008 0 0 -1 30 299 228 0 278 308 302 0 +.00649901914986197 .0082 0 -1 0 0 30 304
 226 0 297 302 309 0 +.044699019149862 .0082 .008 0 0 -1 30 309 5 0 1 304 310 31
1 +0 .01 0 0 0 1 30 310 8 0 312 309 210 0 +0 .01 0 1 0 0 141 311 209 311 311 309
 133 209 531 0 313 287 206 0 +309 0 .01 -.037 0 .01 0 -.037 0 16 313 529 0 ?35 3
12 314 209 0 0 1 133 287 253 0 276 315 209 0 +308 .00649901914986197 .0082 0 .00
649901914986197 0 0 -.0082 0 30 315 252 0 1 316 287 317 +.00649901914986197 0 .0
08 0 0 -1 30 308 231 0 1 307 299 318 +.00649901914986197 0 0 0 -1 0 30 307 232 0
 301 319 308 0 +.00649901914986197 .0082 .008 -1 0 0 141 318 287 318 318 308 30
 319 233 0 320 321 307 0 +.044699019149862 0 .008 0 1 0 16 320 180 0 ?79 306 322
 319 0 0 1 30 321 234 0 322 323 319 0 +.00649901914986197 0 .008 1 0 0 16 322 17
7 0 ?324 320 325 321 325 325 1 30 323 235 0 298 326 321 0 +.00649901914986197 0
 .008 0 -1 0 16 298 174 0 ?300 325 278 323 0 0 1 30 326 389 0 327 328 323 0 +.01
349901914986196 0 .005 0 0 1 16 327 326 0 ?329 330 331 326 0 0 1 30 328 390 0 33
0 332 326 0 +.03749901914986195 0 .005 0 0 1 16 330 338 0 ?40 333 327 328 0 0 1
 30 332 391 0 333 334 328 0 +.03749901914986195 .0082 .005 0 0 1 16 333 334 0 ?3
35 286 330 332 0 0 1 30 334 392 0 286 336 332 0 +.01349901914986196 .0082 .005 0
 0 1 16 286 330 0 ?87 276 333 334 0 0 1 30 336 394 0 337 338 334 0 +.03749901914
986195 .0082 .008 0 -1 0 16 337 331 0 ?339 340 341 336 0 0 1 30 338 396 0 341 34
2 336 0 +.01349901914986196 .0082 .008 211551643411806e-30 -1 0 16 341 345 0 ?94
 337 343 338 0 0 1 30 342 397 0 331 344 338 0 +.01349901914986196 .0082 .005 1 7
2280144832367e-30 0 16 331 339 0 ?345 327 346 342 0 0 1 30 344 398 0 346 347 342
 0 +.03749901914986195 .0082 .005 0 -1 0 16 346 342 0 ?103 331 348 344 0 0 1 30
 347 399 0 348 349 344 0 +.01349901914986196 0 .005 1 0 0 16 348 335 0 ?350 346
 340 347 0 0 1 30 349 400 0 340 351 347 0 +.01349901914986196 .0082 .005 2115516
43411806e-30 -1 0 16 340 323 0 ?352 348 337 349 0 0 1 31 351 467 0 343 353 349 0
 +.04049901914986195 0 .0045 0 -1 0 0 0 -1 .0015 16 343 442 0 ?354 341 355 351 0
 0 1 31 353 468 0 355 203 351 0 +.04049901914986195 .0082 .0045 0 1 0 0 0 1 .001
5 16 355 443 0 ?356 343 357 353 0 0 1 31 203 512 0 357 200 353 0 +.0104990191498
6196 0 .0045 0 -1 0 0 0 -1 .0015 16 357 487 0 ?358 355 202 203 0 0 1 17 358 0 35
9 358 358 0 360 357 0 0 +16 202 488 0 ?361 357 213 200 0 0 1 17 361 0 362 361 36
1 0 363 202 0 0 +15 362 500 0 361 364 0 17 363 0 365 363 363 0 361 202 0 0 -15 3
65 472 0 363 292 366 14 292 206 367 ?253 368 365 4 369 -0 0 253 368 20 15 366 42
7 0 370 292 288 17 370 0 366 370 370 0 356 355 0 0 -17 356 0 371 356 356 0 370 3
55 0 0 +15 371 455 0 356 372 0 14 372 451 373 ?364 374 375 4 376 -0 0 364 374 20
 81 1 373 1441 234 372 377 0 367 378 379 14 364 496 378 ?226 372 359 4 380 -0 0
 226 372 20 14 374 375 381 ?372 382 383 4 384 +0 0 372 382 20 15 375 454 0 354 3
72 371 51 376 464 0 372 380 384 0 +.04049901914986195 -499999999997031e-22 .0045
 0 1 0 .0015 0 0 1 51 380 509 0 364 385 376 0 +.01049901914986196 -4999999999970
31e-22 .0045 0 1 0 .0015 0 0 1 50 384 388 0 374 376 386 0 +0 0 .005 0 0 1 1 0 0
 50 386 385 0 382 384 387 0 +.03749901914986195 .0082 .005 -1 0 0 0 0 1 14 382 3
67 388 ?374 389 390 4 386 +0 0 374 389 20 50 387 383 0 389 386 252 0 +.013499019
14986196 .0082 .005 -1 -211551643411806e-30 0 211551643411806e-30 -1 0 14 389 35
9 391 ?382 253 392 4 387 -0 0 382 253 20 50 252 223 0 253 387 369 0 +0 0 .008 0
 0 -1 -1 0 0 14 253 210 393 ?389 292 394 4 252 -245 245 389 292 20 50 369 221 0
 292 252 257 0 +.00649901914986197 .0082 .008 0 -1 0 0 0 -1 50 257 220 0 368 369
 254 0 +.044699019149862 0 .008 -1 0 0 0 0 1 14 368 202 395 ?292 256 396 4 257 -
0 0 292 256 20 81 1 395 1447 234 368 397 0 393 398 399 14 256 194 398 ?368 258 2
82 4 254 -0 0 368 258 20 15 396 205 0 279 368 0 17 279 0 396 296 400 70 48 285 0
 290 +17 296 0 396 401 279 77 290 297 0 295 -17 400 0 396 279 401 46 402 303 0 0
 +17 48 0 270 62 72 46 279 285 0 403 -16 285 166 0 ?279 278 276 404 0 0 1 133 40
4 245 0 285 405 406 0 +406 .044699019149862 0 0 .044699019149862 .0082 0 0 .0082
 133 405 143 0 407 408 404 0 +409 .044699019149862 0 0 .053 0 0 .044699019149862
 .053 30 406 246 0 1 404 410 411 +.044699019149862 0 0 0 1 0 133 410 249 0 303 4
06 412 0 +412 .044699019149862 0 .008 .044699019149862 0 0 0 .008 141 411 404 41
1 411 406 16 303 169 0 ?400 413 297 410 0 0 1 30 412 250 0 1 410 316 414 +.04469
9019149862 0 .008 0 0 -1 133 316 251 0 413 412 315 0 +315 .00649901914986197 0 .
008 .00649901914986197 0 0 0 .008 141 414 410 414 414 412 16 413 165 0 ?281 415
 303 316 0 0 1 17 281 0 416 65 84 49 283 413 0 275 +16 415 57 0 ?417 407 413 418
 0 0 1 17 417 0 274 419 420 63 421 415 0 0 +16 407 142 0 ?62 280 415 405 0 0 1 3
0 418 69 0 415 210 409 0 +0 0 0 0 0 1 30 210 11 0 1 310 418 422 +.053 .01 0 0 0
 -1 30 409 68 0 1 418 423 424 +0 0 0 1 0 0 30 423 67 0 425 409 426 0 +.053 0 0 0
 0 -1 141 424 405 427 427 409 141 427 408 424 424 409 133 408 140 0 280 23 405 0
 +409 0 0 0 .00649901914986197 0 0 0 .00649901914986197 16 280 53 0 ?51 425 407
 408 0 0 1 30 23 89 0 9 428 408 0 +0 .01 0 0 -1 0 30 428 88 0 22 429 23 0 +.053
 .01 0 0 -1 0 16 22 76 0 ?430 9 431 428 0 0 1 30 429 87 0 431 432 428 0 +.053 .0
1 -.043 0 -1 0 16 431 75 0 ?433 22 434 429 0 0 1 30 432 86 0 434 426 429 0 +0 .0
1 -.043 0 -1 0 16 434 74 0 ?420 431 208 432 0 0 1 30 426 66 0 314 423 432 0 +0 0
 -.043 -1 0 0 16 314 45 0 ?55 313 425 426 0 0 1 17 55 0 435 112 433 53 436 314 0
 420 +16 425 49 0 ?59 314 280 423 0 0 1 17 59 0 268 115 430 57 437 425 0 433 +15
 268 80 0 59 265 0 17 115 0 268 438 59 113 433 431 0 196 -17 430 0 268 59 439 60
 440 22 0 437 +17 437 0 416 403 436 60 59 425 0 0 -17 433 0 435 55 441 57 115 43
1 0 436 +15 435 78 0 55 261 0 17 441 0 435 433 112 113 198 197 0 0 -17 436 0 416
 437 421 57 55 314 0 0 -15 416 317 0 329 258 0 17 421 0 416 436 65 53 417 415 0
 0 -17 65 0 416 421 281 63 51 280 0 21 -17 21 0 270 51 442 63 419 9 0 417 +17 44
2 0 270 21 440 56 68 312 0 419 -17 419 0 274 39 417 56 21 9 0 0 -15 274 84 0 417
 14 0 17 39 0 274 443 419 25 35 313 0 217 -17 443 0 274 444 39 109 217 213 0 0 -
17 35 0 34 68 32 56 39 313 0 442 +17 217 0 445 37 120 25 443 213 0 0 +15 445 587
 0 37 226 0 17 37 0 445 131 217 121 32 38 0 0 +17 120 0 445 217 446 109 118 192
 0 191 -17 446 0 445 120 108 116 212 199 0 438 -17 118 0 447 196 191 116 120 192
 0 446 +17 191 0 447 118 198 109 444 189 0 443 +15 447 598 0 191 448 0 17 198 0
 447 191 196 95 441 197 0 444 +17 444 0 274 420 443 95 191 189 0 0 -17 420 0 274
 417 444 53 112 434 0 421 +17 112 0 435 441 55 95 420 434 0 198 -17 196 0 447 19
8 118 113 438 194 0 441 +17 438 0 268 212 115 116 196 194 0 0 -17 212 0 268 439
 438 106 446 199 0 0 +17 439 0 268 430 212 52 449 208 0 0 -17 449 0 34 450 68 10
6 439 208 0 212 +16 208 10 0 ?449 434 312 206 0 0 1 16 312 7 0 ?68 208 313 310 0
 0 1 17 68 0 34 449 35 52 442 312 0 440 +17 440 0 270 442 62 52 430 22 0 439 -17
 62 0 270 440 48 60 403 407 0 430 +17 403 0 416 402 437 46 62 407 0 400 -17 402
 0 416 451 403 80 400 303 0 401 -17 451 0 416 452 402 33 82 325 0 0 -17 401 0 39
6 400 296 80 79 320 0 0 -17 79 0 251 305 82 77 401 320 0 296 +15 251 284 0 339 2
45 0 17 305 0 251 339 79 89 295 301 0 0 +17 82 0 251 79 339 80 451 325 0 402 +17
 339 0 251 82 305 33 91 337 0 451 +16 325 275 0 ?82 322 298 321 322 322 1 17 91
 0 390 100 40 89 339 337 0 335 -15 390 370 0 91 382 0 17 100 0 390 103 91 98 335
 333 0 453 -17 40 0 390 91 103 33 452 330 0 339 +17 335 0 288 295 345 89 100 333
 0 305 +17 295 0 288 290 335 77 305 301 0 0 -17 345 0 288 335 454 98 97 331 0 0
 +17 454 0 288 345 291 74 87 286 0 0 -17 97 0 383 352 453 74 345 331 0 455 -15 3
83 377 0 352 374 0 17 352 0 383 350 97 88 455 340 0 456 +17 453 0 383 97 350 98
 103 346 0 345 -17 455 0 392 87 105 74 352 340 0 454 -15 392 362 0 94 389 0 17 8
7 0 392 94 455 85 454 286 0 457 +17 105 0 392 455 94 88 329 327 0 352 -17 94 0 3
92 105 87 92 457 341 0 329 +17 329 0 416 84 456 92 105 327 0 324 +17 84 0 416 28
1 329 73 324 322 0 300 -17 456 0 416 329 452 88 350 348 0 0 -17 324 0 394 457 30
0 92 84 322 0 0 +15 394 212 0 324 253 0 17 457 0 394 76 324 85 94 341 0 291 -17
 300 0 394 324 76 73 294 298 0 283 +17 76 0 394 300 457 66 291 306 0 289 +17 283
 0 282 294 275 73 281 413 0 0 -17 291 0 288 454 289 85 76 306 0 0 -16 306 281 0
 ?76 301 320 307 301 301 1 17 452 0 416 456 451 101 40 330 0 0 -17 350 0 383 453
 352 101 456 348 0 452 +17 103 0 390 40 100 101 453 346 0 350 +17 450 0 34 29 44
9 10 108 16 0 0 -17 29 0 34 148 450 125 24 30 0 0 -17 108 0 445 446 31 106 450 1
6 0 449 +16 16 825 0 ?108 38 188 6 0 0 1 17 31 0 445 108 163 10 27 175 0 450 +17
 163 0 445 31 131 132 146 152 0 0 -17 27 0 26 157 24 132 31 175 0 159 -15 26 890
 0 24 238 0 17 157 0 26 28 27 134 159 160 0 154 -17 159 0 158 146 154 132 157 16
0 0 163 +17 28 0 26 24 157 125 136 151 0 150 +17 150 0 149 136 129 125 148 165 0
 29 +17 148 0 34 36 29 127 150 165 0 0 -17 36 0 34 32 148 121 140 147 0 37 -14 2
38 887 458 ?156 143 26 4 459 -0 0 156 143 20 81 1 458 1449 234 238 460 0 398 461
 462 14 156 891 461 ?162 238 149 4 463 -0 0 162 238 20 50 459 905 0 238 464 463
 0 +.048 .006 -.037 1 0 0 0 0 -1 50 464 908 0 162 0 459 0 +0 .006 0 0 1 0 0 0 1
 50 463 904 0 156 459 239 0 +.005 .006 -.02 0 0 1 1 0 0 50 239 903 0 143 463 233
 0 +.005 .006 -.037 -1 0 1020425574104004e-31 1020425574104004e-31 0 1 14 162 89
5 465 ?0 156 158 4 464 +0 0 0 156 20 81 1 465 1451 234 162 466 0 461 467 468 80
 255 1 234 469 470 9000 1 1 1 1 1 1 1 1 0 FFFFTFTFFFFFFF1 81 1 466 999 471 162 0
 465 472 0 473 81 1 461 1450 234 156 472 0 458 465 474 81 1 467 1452 234 226 475
 0 465 476 477 82 255 1 468 -1078525815 14 226 584 467 ?448 364 224 4 385 -0 0 4
48 364 20 81 1 475 991 471 226 0 467 478 479 480 81 1 476 1453 234 241 481 0 467
 482 483 82 1 477 -523370359 14 241 688 476 ?231 448 484 4 485 -0 0 231 448 20 8
1 1 481 993 471 241 0 476 479 486 487 81 1 482 1454 234 448 479 0 476 0 488 82 1
 483 -534970234 14 448 596 482 ?241 226 447 4 489 +0 0 241 226 20 81 1 479 992 4
71 448 0 482 475 481 490 82 1 488 -530448253 80 1 471 0 491 8001 0 0 0 0 3 5 0 0
 0 FFFFTFTFFFFFFF2 83 255 3 490 .792156862745098 .819607843137255 .9333333333333
33 79 255 15 491 SDL/TYSA_COLOUR50 489 609 0 448 485 385 0 +0 .018 0 0 1 0 0 0 1
 51 485 706 0 241 243 489 0 +.04125 .012 .008000025 0 0 -1 .00175 -1 0 0 50 385
 605 0 226 489 380 0 +734788079488412e-33 .018 -.037 0 0 -1 -1 0 0 51 243 751 0
 231 233 485 0 +.02625 .012 .008000025 0 0 -1 .00175 -1 0 0 81 1 486 994 471 231
 0 240 481 235 492 83 3 487 .792156862745098 .819607843137255 .933333333333333 8
1 1 240 1432 234 231 486 0 236 244 493 81 1 235 995 471 229 0 230 486 494 495 83
 3 492 .792156862745098 .819607843137255 .933333333333333 81 1 494 996 471 143 0
 236 235 460 496 83 3 495 .792156862745098 .819607843137255 .933333333333333 81
 1 236 1431 234 143 494 0 230 240 497 81 1 460 997 471 238 0 458 494 472 498 83
 3 496 .792156862745098 .819607843137255 .933333333333333 81 1 472 998 471 156 0
 461 460 466 499 83 3 498 .792156862745098 .819607843137255 .933333333333333 83
 3 499 .792156862745098 .819607843137255 .933333333333333 82 1 497 -1071578999 8
2 1 493 -533266298 15 484 691 0 187 241 500 17 187 0 484 187 187 0 501 185 0 0 +
15 500 692 0 502 241 0 17 502 0 500 502 502 0 221 188 0 0 -17 221 0 503 221 221
 0 502 188 0 0 +15 503 668 0 221 226 445 17 501 0 504 501 501 0 187 185 0 0 -15
 504 674 0 501 261 435 81 1 478 990 471 364 0 378 377 475 505 83 3 480 .79215686
2745098 .819607843137255 .933333333333333 81 1 378 1442 234 364 478 0 373 381 50
6 81 1 377 989 471 372 0 373 507 478 508 83 3 505 .792156862745098 .819607843137
255 .933333333333333 81 1 507 988 471 374 0 381 509 377 510 83 3 508 .7921568627
45098 .819607843137255 .933333333333333 81 1 381 1443 234 374 507 0 378 388 511
 81 1 509 987 471 382 0 388 512 507 513 83 3 510 .792156862745098 .8196078431372
55 .933333333333333 81 1 388 1444 234 382 509 0 381 391 514 81 1 512 986 471 389
 0 391 515 509 516 83 3 513 .792156862745098 .819607843137255 .933333333333333 8
1 1 391 1445 234 389 512 0 388 393 517 81 1 515 985 471 253 0 393 518 512 519 83
 3 516 .792156862745098 .819607843137255 .933333333333333 81 1 393 1446 234 253
 515 0 391 395 520 81 1 518 984 471 292 0 367 397 515 521 83 3 519 .792156862745
098 .819607843137255 .933333333333333 81 1 367 1440 234 292 518 0 272 373 522 81
 1 397 983 471 368 0 395 523 518 524 83 3 521 .792156862745098 .819607843137255
 .933333333333333 81 1 523 982 471 256 0 398 525 397 526 83 3 524 .7921568627450
98 .819607843137255 .933333333333333 81 1 398 1448 234 256 523 0 395 458 527 81
 1 525 981 471 258 0 260 528 523 529 83 3 526 .792156862745098 .819607843137255
 .933333333333333 81 1 260 1435 234 258 525 0 248 264 530 81 1 528 980 471 261 0
 264 531 525 532 83 3 529 .792156862745098 .819607843137255 .933333333333333 81
 1 264 1436 234 261 528 0 260 267 533 81 1 531 979 471 265 0 267 534 528 535 83
 3 532 .792156862745098 .819607843137255 .933333333333333 81 1 267 1437 234 265
 531 0 264 269 536 81 1 534 978 471 14 0 272 271 531 537 83 3 535 .7921568627450
98 .819607843137255 .933333333333333 81 1 272 1439 234 14 534 0 269 367 538 81 1
 271 977 471 250 0 269 539 534 540 83 3 537 .792156862745098 .819607843137255 .9
33333333333333 81 1 539 976 471 245 0 248 247 271 541 83 3 540 .792156862745098
 .819607843137255 .933333333333333 81 1 248 1434 234 245 539 0 244 260 542 81 1
 247 975 471 12 0 244 0 539 543 83 3 541 .792156862745098 .819607843137255 .9333
33333333333 83 3 543 .792156862745098 .819607843137255 .933333333333333 82 1 542
 -2128412553 82 1 538 100008067 82 1 536 99483779 82 1 533 99221638 82 1 530 983
04128 82 1 527 -1732509581 82 1 522 -1733296000 82 1 520 -1739849609 82 1 517 -2
132672393 82 1 514 -2133131145 82 1 511 -2139946889 82 1 506 -968884096 82 1 474
 -1071710071 83 3 473 .792156862745098 .819607843137255 .933333333333333 79 14 4
70 SWEntUnchanged82 1 462 -1071841143 17 131 0 445 163 37 110 123 172 0 139 -17
 123 0 138 140 139 121 131 172 0 36 +141 422 206 422 422 210 82 1 399 -173303386
9 17 354 0 375 354 354 0 544 343 0 0 +17 544 0 545 544 544 0 354 343 0 0 -15 545
 434 0 544 258 416 15 359 499 0 358 364 362 82 1 379 -972881792 17 360 0 262 360
 360 0 358 357 0 0 -15 262 479 0 360 258 545 141 317 316 317 317 315 82 1 273 -1
727463309 15 266 764 0 546 261 547 17 546 0 266 546 546 0 179 174 0 0 -15 547 71
9 0 548 261 504 17 548 0 547 548 548 0 183 181 0 0 -17 183 0 242 183 183 0 548 1
81 0 0 +15 242 736 0 183 231 549 15 549 737 0 550 231 0 17 550 0 549 550 550 0 2
22 184 0 0 -17 222 0 227 222 222 0 550 184 0 0 +15 227 713 0 222 226 503 17 179
 0 232 179 179 0 546 174 0 0 +82 1 249 -518717303 82 1 237 -531562362 19 13 95 0
 1 0 8 4 S74 4 CI16 index_map_offset0 0 1 dCCZ20 11 2 0 0 482 466 0 0 0 0 0 0 0
 0 0 0 0 0 0 0 0 0 0 0 1 0 
